<svg width="26" height="26" viewBox="0 0 26 26" fill="none" xmlns="http://www.w3.org/2000/svg">
<path d="M25.1595 22.1108L20.2902 17.2427C20.181 17.1337 20.0514 17.0474 19.9088 16.9887C19.7662 16.9299 19.6133 16.8999 19.4591 16.9003H18.6626C20.2534 14.8623 21.0067 12.2945 20.7691 9.72029C20.5314 7.14613 19.3206 4.75953 17.3835 3.04712C15.4464 1.33472 12.929 0.425475 10.3445 0.504784C7.75995 0.584093 5.30302 1.64598 3.47464 3.47393C1.64625 5.30188 0.584113 7.75823 0.504785 10.3421C0.425458 12.926 1.33492 15.4429 3.04773 17.3795C4.76053 19.3161 7.1477 20.5266 9.72247 20.7643C12.2973 21.0019 14.8657 20.2487 16.9042 18.6583V19.4546C16.9038 19.6088 16.9338 19.7616 16.9926 19.9042C17.0513 20.0468 17.1377 20.1764 17.2467 20.2855L22.1179 25.1556C22.2264 25.2647 22.3554 25.3513 22.4976 25.4105C22.6397 25.4696 22.7921 25.5 22.9461 25.5C23.1 25.5 23.2524 25.4696 23.3946 25.4105C23.5367 25.3513 23.6658 25.2647 23.7743 25.1556L25.1575 23.7726C25.3769 23.5521 25.5 23.2537 25.5 22.9427C25.5 22.6317 25.3769 22.3333 25.1575 22.1127L25.1595 22.1108ZM10.6517 16.9003C9.41505 16.9003 8.20618 16.5337 7.17796 15.8468C6.14974 15.16 5.34834 14.1837 4.8751 13.0415C4.40186 11.8992 4.27804 10.6423 4.51929 9.42976C4.76055 8.21717 5.35604 7.10334 6.23047 6.22912C7.10491 5.35489 8.219 4.75954 9.43187 4.51834C10.6447 4.27714 11.9019 4.40094 13.0444 4.87406C14.1869 5.34719 15.1634 6.1484 15.8505 7.17638C16.5375 8.20436 16.9042 9.41294 16.9042 10.6493C16.9047 11.4703 16.7433 12.2834 16.4293 13.0421C16.1153 13.8007 15.6547 14.49 15.074 15.0706C14.4933 15.6511 13.8038 16.1116 13.045 16.4255C12.2862 16.7395 11.4729 16.9008 10.6517 16.9003Z" fill="white"/>
</svg>
